<?xml version="1.0" standalone="no"?>
<!DOCTYPE svg PUBLIC "-//W3C//DTD SVG 20010904//EN"
 "http://www.w3.org/TR/2001/REC-SVG-20010904/DTD/svg10.dtd">
<svg version="1.0" xmlns="http://www.w3.org/2000/svg"
 width="512.000000pt" height="512.000000pt" viewBox="0 0 512.000000 512.000000"
 preserveAspectRatio="xMidYMid meet">
<metadata>
Created by potrace 1.14, written by Peter Selinger 2001-2017
</metadata>
<g transform="translate(0.000000,512.000000) scale(0.100000,-0.100000)"
fill="#000000" stroke="none">
<path d="M0 2560 l0 -2560 2560 0 2560 0 0 2560 0 2560 -2560 0 -2560 0 0
-2560z m4041 2094 c57 -27 115 -85 143 -144 l21 -45 0 -1905 0 -1905 -21 -45
c-28 -59 -86 -117 -143 -144 l-46 -21 -1435 0 -1435 0 -46 21 c-57 27 -115 85
-143 144 l-21 45 -3 1885 c-2 2069 -6 1945 57 2024 42 52 77 78 135 98 48 16
138 17 1471 15 l1420 -2 46 -21z"/>
<path d="M1429 4190 c-48 -25 -96 -81 -108 -127 -6 -21 -11 -122 -11 -224 0
-183 0 -186 28 -240 29 -57 70 -92 131 -109 49 -14 2133 -14 2182 0 61 17 102
52 132 109 27 54 27 57 27 240 0 102 -5 203 -11 224 -13 47 -60 102 -110 128
-37 18 -69 19 -1131 19 -1055 -1 -1094 -2 -1129 -20z"/>
<path d="M1734 3006 l-34 -34 0 -155 0 -156 -159 -3 -160 -3 -30 -29 c-36 -35
-45 -68 -31 -112 22 -65 48 -74 224 -74 l156 0 0 -150 c0 -168 8 -198 60 -225
37 -19 65 -19 100 1 53 32 60 58 60 223 l0 151 159 0 159 0 31 31 c54 53 39
139 -29 174 -22 11 -65 15 -175 15 l-145 0 0 145 c0 156 -8 188 -52 219 -12 9
-40 16 -61 16 -31 0 -46 -7 -73 -34z"/>
<path d="M2879 2645 c-37 -20 -59 -58 -59 -101 0 -28 8 -44 34 -70 l34 -34
424 0 c464 0 451 -2 483 60 20 38 19 65 -2 101 -35 58 -42 59 -485 59 -328 -1
-408 -3 -429 -15z"/>
<path d="M2944 1671 c-39 -24 -68 -91 -58 -135 15 -70 62 -106 140 -106 41 0
51 5 85 39 35 35 39 44 39 91 0 47 -4 56 -39 91 -34 35 -44 39 -87 39 -30 0
-61 -7 -80 -19z"/>
<path d="M1494 1660 c-35 -14 -64 -59 -64 -100 0 -47 30 -89 139 -194 l82 -79
-111 -112 c-107 -109 -110 -113 -110 -157 0 -56 27 -93 76 -107 54 -15 78 -1
194 115 l105 104 110 -108 c116 -115 139 -128 202 -110 58 16 91 95 62 151 -6
12 -57 68 -112 124 l-101 103 112 113 c106 108 112 116 112 155 0 73 -73 128
-142 107 -12 -4 -71 -55 -131 -113 l-107 -106 -103 101 c-119 119 -154 137
-213 113z"/>
<path d="M3495 1621 c-16 -10 -154 -144 -306 -297 -206 -208 -278 -287 -282
-309 -14 -80 50 -145 128 -131 35 7 73 41 322 289 155 154 290 296 299 315 47
100 -65 193 -161 133z"/>
<path d="M3553 1135 c-68 -29 -97 -141 -52 -199 80 -102 239 -54 239 73 0 58
-29 107 -75 127 -43 17 -71 17 -112 -1z"/>
</g>
</svg>
