<?xml version="1.0" standalone="no"?>
<!DOCTYPE svg PUBLIC "-//W3C//DTD SVG 20010904//EN"
 "http://www.w3.org/TR/2001/REC-SVG-20010904/DTD/svg10.dtd">
<svg version="1.0" xmlns="http://www.w3.org/2000/svg"
 width="512.000000pt" height="512.000000pt" viewBox="0 0 512.000000 512.000000"
 preserveAspectRatio="xMidYMid meet">
<metadata>
Created by potrace 1.14, written by Peter Selinger 2001-2017
</metadata>
<g transform="translate(0.000000,512.000000) scale(0.100000,-0.100000)"
fill="#000000" stroke="none">
<path d="M0 2560 l0 -2560 2560 0 2560 0 0 2560 0 2560 -2560 0 -2560 0 0
-2560z m4047 2101 c65 -29 124 -91 149 -157 18 -48 19 -104 19 -1949 l0 -1900
-24 -52 c-29 -65 -91 -124 -157 -149 -47 -18 -96 -19 -1474 -19 -1378 0 -1427
1 -1474 19 -66 25 -128 84 -157 149 l-24 52 0 1900 c0 1840 1 1902 19 1949 21
56 75 120 120 143 82 43 46 42 1531 40 l1420 -2 52 -24z"/>
<path d="M1440 4204 c-46 -20 -87 -60 -111 -107 -18 -35 -20 -56 -17 -257 l3
-218 30 -43 c17 -23 50 -53 74 -66 l44 -23 1097 0 1097 0 44 23 c24 13 58 43
74 66 l30 43 3 218 c3 241 -1 261 -65 322 -64 61 0 58 -1185 58 -945 -1 -1087
-3 -1118 -16z"/>
<path d="M1731 3009 l-31 -31 0 -159 0 -159 -150 0 c-163 0 -193 -7 -224 -54
-26 -40 -21 -90 13 -128 l29 -33 164 -5 163 -5 5 -163 5 -164 33 -29 c37 -33
79 -38 121 -13 51 30 56 47 59 217 l4 157 150 0 c163 0 195 8 217 57 16 34 14
85 -5 111 -31 44 -63 52 -219 52 l-145 0 0 140 c0 194 -23 240 -116 240 -34 0
-49 -6 -73 -31z"/>
<path d="M2882 2643 c-38 -19 -62 -58 -62 -104 0 -22 10 -41 34 -65 l34 -34
422 0 c439 0 448 1 482 44 22 26 23 94 2 124 -36 51 -43 52 -476 52 -352 0
-407 -3 -436 -17z"/>
<path d="M2953 1670 c-45 -27 -66 -64 -66 -116 0 -136 187 -182 249 -62 62
120 -69 248 -183 178z"/>
<path d="M1509 1662 c-15 -2 -39 -16 -54 -32 -23 -24 -28 -39 -28 -75 0 -46 2
-48 111 -158 l112 -112 -100 -100 c-118 -117 -137 -151 -121 -206 15 -49 53
-79 100 -79 47 0 66 13 183 129 l98 95 113 -112 c108 -106 116 -112 155 -112
73 0 128 73 107 142 -4 12 -55 71 -113 131 l-106 107 95 98 c53 53 104 108
113 122 46 70 -12 165 -99 163 -43 -1 -69 -20 -180 -132 l-90 -91 -105 105
c-106 105 -136 124 -191 117z"/>
<path d="M3505 1621 c-16 -10 -157 -147 -312 -303 l-283 -284 0 -47 c0 -37 6
-53 28 -79 25 -27 36 -31 76 -31 l48 0 304 304 304 305 0 43 c0 36 -6 49 -34
77 -40 40 -84 45 -131 15z"/>
<path d="M3543 1120 c-74 -45 -84 -148 -20 -207 67 -60 154 -49 204 26 27 40
29 80 6 128 -32 69 -123 94 -190 53z"/>
</g>
</svg>
